<svg t="1764660561847" class="icon" viewBox="0 0 1024 1024" version="1.1" xmlns="http://www.w3.org/2000/svg" p-id="2541" width="128" height="128"><path d="M864.964923 366.119385C864.964923 185.659077 699.076923 39.384615 494.316308 39.384615c-102.754462 0-195.741538 36.903385-262.852923 96.452923-41.472 31.507692-75.224615 72.073846-94.28677 122.210462-11.264 29.735385-21.070769 69.592615-21.504 101.612308-0.630154 39.936 18.983385 79.084308 1.732923 117.956923-12.012308 27.175385-43.244308 50.215385-63.291076 71.916307 0 0-56.201846 37.257846 51.003076 42.338462 3.032615 0.157538 16.580923 64 19.968 78.611692a17.171692 17.171692 0 0 0-3.387076 11.067077c0 12.248615 15.478154 22.252308 34.540307 22.252308h11.618462c-25.127385 3.387077-43.283692 13.233231-43.283693 26.781538 0 9.334154 11.933538 21.661538 29.77477 29.105231 0 0-22.016 70.971077 10.633846 86.646154 5.592615 2.402462 12.8 3.150769 21.976615 1.575385 46.276923 2.520615 129.181538-0.787692 175.261539-0.787693 0-0.787692 24.221538 128.472615 24.221538 128.472616h416.295385c0 0.669538-40.014769-297.511385-40.014769-297.511385 73.255385-104.526769 98.619077-198.104615 100.036923-276.322461 1.417846-11.697231 2.205538-23.552 2.205538-35.643077z m-219.372308-55.37477a74.988308 74.988308 0 0 1-67.820307-43.244307l-56.201846 32.452923c7.049846 14.690462 11.303385 30.956308 11.303384 48.364307 0 23.236923-7.049846 44.740923-19.062154 62.700308l105.472 60.849231a37.572923 37.572923 0 1 1-11.224615 26.742154c0-3.662769 1.063385-6.971077 2.048-10.318769L501.76 425.747692a112.128 112.128 0 0 1-81.604923 35.288616 112.718769 112.718769 0 0 1 0-225.437539c38.124308 0 71.68 19.062154 92.120615 48.049231l59.549539-34.422154a75.224615 75.224615 0 0 1-1.378462-13.627077 75.145846 75.145846 0 1 1 75.145846 75.145846z" p-id="2542" fill="#8a8a8a"></path></svg>